<svg xmlns="http://www.w3.org/2000/svg" viewBox="0 0 1200 750" role="img" aria-labelledby="title desc">
  <title id="title">RespiScan Login Screen</title>
  <desc id="desc">Stylized mock screenshot for AI Web Application carousel.</desc>
  <defs>
    <linearGradient id="bg" x1="0" x2="1" y1="0" y2="1">
      <stop offset="0" stop-color="#0d1117"/>
      <stop offset="1" stop-color="#1d1b30"/>
    </linearGradient>
  </defs>
  <rect width="1200" height="750" fill="url(#bg)"/>
  <rect x="80" y="70" width="1040" height="610" rx="14" fill="#131a24" stroke="#334155"/>
  <rect x="80" y="70" width="1040" height="62" rx="14" fill="#0b1321"/>
  <circle cx="114" cy="101" r="8" fill="#ef4444"/>
  <circle cx="138" cy="101" r="8" fill="#f59e0b"/>
  <circle cx="162" cy="101" r="8" fill="#22c55e"/>
  <text x="190" y="107" fill="#94a3b8" font-family="Inter, Arial" font-size="24">RespiScan Dashboard</text>
  <rect x="130" y="180" width="340" height="420" rx="12" fill="#0f172a" stroke="#334155"/>
  <text x="160" y="235" fill="#e2e8f0" font-family="Inter, Arial" font-size="32">Login</text>
  <rect x="160" y="270" width="280" height="48" rx="8" fill="#1e293b"/>
  <rect x="160" y="336" width="280" height="48" rx="8" fill="#1e293b"/>
  <rect x="160" y="416" width="280" height="52" rx="8" fill="#e11d3c"/>
  <text x="258" y="450" fill="#f8fafc" font-family="Inter, Arial" font-size="24">Sign In</text>
  <rect x="530" y="180" width="540" height="250" rx="12" fill="#111827" stroke="#334155"/>
  <rect x="560" y="210" width="200" height="180" rx="10" fill="#1f2937"/>
  <rect x="780" y="210" width="260" height="22" rx="6" fill="#334155"/>
  <rect x="780" y="248" width="230" height="18" rx="6" fill="#334155"/>
  <rect x="780" y="282" width="260" height="18" rx="6" fill="#334155"/>
  <rect x="780" y="316" width="180" height="18" rx="6" fill="#334155"/>
  <text x="80" y="710" fill="#94a3b8" font-family="JetBrains Mono, monospace" font-size="22">PROJ.01 • AI WEB APPLICATION • MOCK SCREEN 1</text>
</svg>
