<svg xmlns="http://www.w3.org/2000/svg" viewBox="0 0 1200 750" role="img" aria-labelledby="title desc">
  <title id="title">RespiScan Team Insights</title>
  <desc id="desc">Stylized mock screenshot for AI Web Application carousel.</desc>
  <defs>
    <linearGradient id="bg" x1="0" x2="1" y1="0" y2="1">
      <stop offset="0" stop-color="#111827"/>
      <stop offset="1" stop-color="#3f1d2e"/>
    </linearGradient>
  </defs>
  <rect width="1200" height="750" fill="url(#bg)"/>
  <rect x="90" y="80" width="1020" height="590" rx="18" fill="#0f172a" stroke="#334155"/>
  <rect x="90" y="80" width="1020" height="76" rx="18" fill="#1e293b"/>
  <text x="140" y="128" fill="#f8fafc" font-family="Inter, Arial" font-size="28">Model Insights</text>
  <rect x="140" y="200" width="290" height="180" rx="12" fill="#111827" stroke="#334155"/>
  <rect x="170" y="238" width="230" height="18" rx="6" fill="#475569"/>
  <rect x="170" y="274" width="180" height="18" rx="6" fill="#475569"/>
  <rect x="170" y="310" width="210" height="18" rx="6" fill="#475569"/>
  <rect x="455" y="200" width="300" height="180" rx="12" fill="#111827" stroke="#334155"/>
  <polyline points="485,336 540,280 590,308 640,245 700,220" fill="none" stroke="#e11d3c" stroke-width="6" stroke-linecap="round"/>
  <rect x="780" y="200" width="280" height="180" rx="12" fill="#111827" stroke="#334155"/>
  <circle cx="860" cy="290" r="56" fill="#1f2937"/>
  <path d="M860 250 A40 40 0 1 1 820 290" fill="none" stroke="#e11d3c" stroke-width="12"/>
  <rect x="140" y="420" width="920" height="190" rx="12" fill="#111827" stroke="#334155"/>
  <rect x="180" y="464" width="840" height="18" rx="6" fill="#334155"/>
  <rect x="180" y="498" width="760" height="18" rx="6" fill="#334155"/>
  <rect x="180" y="532" width="800" height="18" rx="6" fill="#334155"/>
  <text x="90" y="710" fill="#fda4af" font-family="JetBrains Mono, monospace" font-size="22">PROJ.01 • AI WEB APPLICATION • MOCK SCREEN 3</text>
</svg>
